<?xml version="1.0" standalone="no"?>
<!DOCTYPE svg PUBLIC "-//W3C//DTD SVG 20010904//EN"
 "http://www.w3.org/TR/2001/REC-SVG-20010904/DTD/svg10.dtd">
<svg version="1.0" xmlns="http://www.w3.org/2000/svg"
 width="627.000000pt" height="627.000000pt" viewBox="0 0 627.000000 627.000000"
 preserveAspectRatio="xMidYMid meet">
<metadata>
Created by potrace 1.16, written by Peter Selinger 2001-2019
</metadata>
<g transform="translate(0.000000,627.000000) scale(0.100000,-0.100000)"
fill="#000000" stroke="none">
<path d="M3040 6036 c0 -4 41 -52 91 -107 50 -55 90 -102 88 -103 -2 -2 -33 2
-69 10 -128 27 -319 37 -482 25 -84 -7 -178 -17 -208 -24 l-55 -13 85 -32 c47
-18 96 -41 109 -51 23 -18 23 -18 -64 -35 -150 -30 -309 -94 -482 -194 -35
-20 -63 -39 -63 -42 0 -3 69 -6 153 -7 83 -1 165 -5 181 -10 29 -9 29 -9 -55
-65 -185 -123 -331 -273 -470 -481 -71 -105 -129 -206 -129 -222 0 -3 25 13
56 35 77 58 237 160 242 156 2 -2 -13 -26 -32 -54 -20 -27 -48 -76 -63 -108
-26 -56 -28 -67 -28 -210 0 -172 1 -169 -109 -295 -127 -143 -137 -191 -82
-403 20 -76 33 -143 30 -148 -4 -6 -6 -83 -5 -172 1 -154 0 -164 -26 -221 -19
-44 -28 -85 -33 -155 -6 -88 -10 -102 -54 -189 -59 -114 -64 -164 -23 -253 57
-126 70 -138 260 -234 214 -108 236 -123 288 -191 74 -98 91 -150 100 -297 5
-80 16 -160 29 -205 23 -82 23 -78 -12 -348 -11 -89 -18 -172 -14 -185 4 -14
37 -44 89 -78 125 -84 148 -142 172 -442 7 -85 29 -126 59 -115 24 9 35 46 45
156 10 102 18 129 54 169 45 49 180 9 238 -71 49 -68 60 -123 68 -339 6 -178
8 -200 27 -225 29 -39 79 -39 108 0 18 25 21 48 28 215 12 291 35 378 122 462
30 28 40 32 54 24 28 -18 42 -56 42 -116 0 -45 5 -63 20 -78 16 -16 25 -18 40
-10 23 13 27 29 33 136 6 94 29 154 76 199 57 53 126 33 165 -49 22 -47 35
-204 29 -361 -6 -158 4 -205 50 -239 26 -19 30 -19 55 -6 55 31 62 64 62 298
0 394 36 561 134 621 45 28 77 26 108 -6 45 -49 51 -72 58 -223 3 -80 11 -154
17 -166 19 -33 40 -46 63 -39 37 12 50 63 50 197 1 68 7 233 14 367 l13 245
-52 130 c-97 241 -100 257 -89 399 l10 124 77 99 c91 115 247 294 258 294 3 0
9 -9 12 -20 3 -11 9 -20 15 -20 13 0 157 186 225 290 30 47 74 124 98 173 24
48 47 87 52 87 8 0 4 -70 -9 -162 -16 -108 64 35 110 197 58 203 82 394 73
586 -3 71 -4 129 -2 129 2 0 28 -34 58 -76 30 -41 57 -72 60 -67 9 14 -13 174
-34 253 -29 105 -107 262 -174 349 -56 72 -57 75 -51 122 9 69 -10 205 -44
308 -33 102 -145 331 -161 331 -11 0 -7 -94 8 -177 7 -46 -7 -41 -49 15 -20
26 -68 78 -106 115 -53 51 -77 67 -99 67 -25 0 -30 6 -46 49 -25 71 -135 207
-283 351 -127 123 -279 248 -289 238 -3 -3 14 -57 38 -119 25 -63 42 -115 38
-117 -3 -1 -59 27 -124 62 -150 81 -367 174 -552 236 -146 50 -215 67 -215 56z
m88 -546 l-43 -42 35 6 c181 30 326 33 438 10 119 -24 303 -88 412 -144 89
-46 266 -167 258 -176 -2 -2 -36 8 -76 22 -69 24 -202 44 -202 31 0 -4 32 -23
72 -43 174 -88 381 -235 476 -338 61 -67 133 -160 152 -196 13 -24 12 -24 -7
-10 -165 121 -258 178 -269 167 -3 -3 29 -61 70 -129 100 -166 100 -164 37
-133 -60 30 -178 55 -263 55 l-60 0 60 -59 c156 -153 332 -452 332 -563 0 -31
-2 -29 -47 37 -27 38 -53 70 -60 73 -9 2 -12 -27 -10 -118 l2 -121 -46 -17
c-26 -9 -57 -24 -70 -33 -21 -15 -18 -15 64 -11 112 6 145 -1 199 -42 158
-121 141 -387 -38 -572 -70 -73 -163 -130 -232 -144 -31 -6 -98 -23 -149 -37
-81 -23 -97 -25 -132 -14 -49 14 -125 88 -141 136 -6 19 -15 35 -19 35 -9 0
-121 -157 -121 -169 0 -20 93 -160 115 -175 34 -23 49 -21 176 23 63 22 115
38 117 36 2 -2 -12 -34 -31 -71 -42 -86 -101 -233 -95 -239 2 -3 21 7 43 22
25 17 36 21 32 11 -24 -64 -48 -163 -62 -252 -8 -58 -20 -117 -27 -130 -9 -20
-7 -34 9 -73 21 -48 73 -222 73 -242 0 -6 -17 -18 -37 -26 -21 -9 -91 -69
-163 -140 -69 -69 -130 -125 -135 -125 -6 1 -28 23 -49 50 -22 28 -45 50 -52
50 -26 0 -124 -161 -124 -203 0 -22 -24 -37 -209 -131 -115 -58 -213 -106
-218 -106 -6 0 24 89 65 198 86 228 244 683 239 688 -6 7 -187 -325 -347 -636
-83 -162 -159 -302 -168 -311 -22 -22 -142 -61 -142 -47 0 28 64 356 91 467
17 67 28 126 24 129 -3 3 -27 -15 -53 -41 l-48 -47 -52 87 c-47 78 -51 90 -40
111 16 31 88 114 238 276 93 101 127 132 137 125 7 -6 25 -8 40 -5 l28 6 3
-97 c4 -103 14 -133 35 -98 23 38 136 290 137 303 0 22 81 101 141 138 78 47
117 95 178 218 75 152 68 154 -39 11 -100 -134 -113 -140 -305 -139 -128 1
-267 14 -440 40 l-40 7 55 48 c30 26 52 51 48 54 -3 3 -54 -10 -114 -30 -60
-19 -138 -40 -174 -45 -87 -13 -292 -13 -366 1 -135 23 -284 88 -329 141 -13
15 -28 28 -34 28 -5 0 -19 -20 -30 -45 -25 -56 -47 -58 -90 -10 -71 82 -64
163 23 250 65 65 129 89 222 83 64 -4 65 -4 59 19 -5 20 0 26 25 34 16 6 30
14 30 19 0 9 -36 20 -68 20 -13 0 -35 9 -49 20 -21 16 -35 18 -84 13 -45 -4
-64 -2 -84 11 -36 24 -31 44 15 56 35 9 40 14 40 40 0 46 17 80 40 80 27 0 34
-20 21 -66 -12 -45 -3 -59 33 -50 22 5 26 12 26 44 0 55 17 74 65 70 43 -3 45
-7 34 -83 -3 -26 -1 -30 22 -33 23 -3 26 1 35 50 9 52 10 53 45 56 45 4 60
-13 61 -70 2 -48 10 -58 49 -58 37 0 41 9 17 40 -24 34 -18 60 15 60 43 0 63
-44 32 -70 -33 -27 2 -33 72 -12 158 48 175 88 124 289 -37 145 -51 171 -73
128 l-15 -27 -28 48 c-68 118 -147 199 -244 249 -32 16 -37 16 -68 1 -47 -22
-74 -20 -117 9 -40 27 -41 27 -99 -18 -21 -16 -40 -27 -43 -24 -11 10 26 65
69 103 23 22 54 55 67 74 13 19 43 53 67 76 37 34 43 46 43 80 0 50 -24 133
-52 180 -25 42 -28 112 -7 144 8 12 63 42 127 70 194 84 222 106 222 180 0 16
-4 32 -10 35 -5 3 -10 3 -10 -2 0 -4 -9 -23 -20 -41 l-21 -34 -33 30 c-59 52
-93 57 -172 27 -38 -14 -97 -41 -132 -60 l-62 -35 14 28 c18 35 95 107 216
204 53 41 109 95 125 119 100 152 276 268 527 349 89 29 309 80 316 75 2 -2
-16 -22 -40 -45z m-1069 -1614 c7 -8 11 -32 9 -53 -3 -36 -5 -38 -45 -47 -77
-16 -91 27 -26 84 38 34 46 36 62 16z m180 -11 c12 -12 12 -21 2 -55 -7 -23
-19 -44 -26 -47 -25 -9 -99 20 -103 40 -6 32 8 68 31 77 28 12 77 4 96 -15z
m123 -72 c35 -40 80 -131 67 -138 -18 -11 -39 4 -39 27 0 19 -6 23 -34 24 -48
1 -69 20 -62 57 6 30 23 57 35 57 4 0 19 -12 33 -27z"/>
<path d="M3551 5185 c-16 -36 -26 -47 -51 -52 -47 -9 -49 -31 -7 -70 45 -41
60 -41 86 -4 12 16 37 39 56 51 19 12 35 28 35 35 0 13 -79 85 -93 85 -3 0
-15 -20 -26 -45z"/>
<path d="M2893 4946 c-23 -8 -72 -30 -109 -50 -86 -48 -121 -46 -149 6 -22 42
-38 44 -43 8 -7 -44 17 -95 72 -159 48 -55 54 -66 45 -88 -43 -114 66 -304
229 -400 51 -30 142 -66 142 -55 0 4 -24 28 -52 53 -29 26 -50 50 -47 53 3 3
26 -1 50 -9 68 -24 176 -36 255 -27 52 6 74 5 82 -5 15 -15 37 -8 82 29 19 15
42 28 51 28 24 0 29 10 17 39 -6 14 -11 73 -12 131 l-1 105 -47 72 c-29 44
-71 91 -110 122 -82 66 -231 141 -280 141 -20 0 -40 5 -43 10 -9 14 -81 11
-132 -4z"/>
<path d="M3792 4909 c-80 -45 -132 -102 -132 -142 0 -41 32 -169 54 -217 16
-34 16 -32 11 78 -7 138 4 169 89 255 63 64 57 72 -22 26z"/>
<path d="M2227 4422 c-36 -40 -9 -118 70 -207 48 -53 78 -57 102 -14 13 24 13
31 -3 73 -18 48 -118 166 -141 166 -6 0 -19 -8 -28 -18z"/>
<path d="M3724 4284 c-8 -55 6 -108 47 -180 31 -55 120 -145 126 -127 2 5 -16
43 -41 82 -48 79 -90 176 -101 234 -10 50 -22 47 -31 -9z"/>
<path d="M2687 4023 c30 -98 59 -185 64 -193 15 -26 10 86 -7 154 -17 70 -83
209 -100 214 -7 1 13 -77 43 -175z"/>
<path d="M3100 3894 c0 -14 10 -43 21 -64 l22 -39 -41 -47 c-40 -45 -75 -135
-122 -313 -12 -44 -5 -68 10 -40 29 51 105 142 137 163 54 36 84 37 100 4 14
-28 10 -59 -21 -160 -8 -27 -12 -48 -8 -48 4 0 55 48 112 106 120 120 241 207
359 255 44 18 81 36 81 40 0 8 -37 19 -68 19 -21 0 -23 3 -17 30 l7 30 -46
-20 c-25 -10 -81 -26 -124 -34 -75 -14 -80 -14 -142 8 -75 26 -138 57 -195 96
-66 44 -65 44 -65 14z"/>
<path d="M4408 3641 c-60 -20 -138 -84 -138 -114 0 -5 15 -7 35 -4 19 3 49 0
66 -6 27 -10 33 -9 37 2 3 8 15 25 28 38 20 20 27 21 48 11 35 -15 64 -80 74
-163 l7 -70 19 27 c48 72 44 189 -8 246 -29 31 -40 35 -87 38 -30 2 -66 -1
-81 -5z"/>
<path d="M4235 3490 c-5 -17 -14 -20 -43 -18 -36 3 -36 3 -34 -32 4 -44 -24
-82 -78 -110 -44 -23 -54 -41 -38 -75 28 -63 109 -33 164 61 11 19 12 19 34
-1 13 -11 31 -39 42 -62 10 -24 23 -43 28 -43 64 0 91 110 49 197 -21 43 -82
103 -106 103 -6 0 -15 -9 -18 -20z"/>
<path d="M2825 3062 c-6 -4 -21 -20 -35 -35 -21 -24 -22 -30 -10 -37 23 -15
26 -13 45 30 18 40 18 55 0 42z"/>
</g>
</svg>
